<?xml version="1.0" encoding="iso-8859-1"?>
<!-- Uploaded to: SVG Repo, www.svgrepo.com, Generator: SVG Repo Mixer Tools -->
<!DOCTYPE svg PUBLIC "-//W3C//DTD SVG 1.1//EN" "http://www.w3.org/Graphics/SVG/1.1/DTD/svg11.dtd">
<svg fill="#fff" version="1.1" id="Capa_1" xmlns="http://www.w3.org/2000/svg" xmlns:xlink="http://www.w3.org/1999/xlink" 
	 width="25px" height="25px" viewBox="0 0 60.705 60.705"
	 xml:space="preserve">
<g>
	<path d="M41.621,5.882c-2.965-1.306-6.748-1.941-11.565-1.941h-6.87v-1.58C23.185,1.056,22.127,0,20.824,0h-9.571
		C9.949,0,8.892,1.058,8.892,2.361v20.622c0,1.304,1.058,2.36,2.361,2.36h9.571c1.304,0,2.361-1.057,2.361-2.36v-1.279h0.914V29.7
		h-1.935c-1.304,0-2.361,1.057-2.361,2.36v26.283c0,1.305,1.058,2.361,2.361,2.361h16.376c1.306,0,2.361-1.059,2.361-2.361V32.061
		c0-1.304-1.059-2.357-2.361-2.357h-1.936v-7.931c3.195,0.188,6.365,0.998,11.229,5.563c0.447,0.419,1.027,0.64,1.617,0.64
		c0.315,0,0.637-0.064,0.938-0.194c0.862-0.374,1.424-1.228,1.424-2.168v-4.311C51.814,14.858,46.441,8.005,41.621,5.882z
		 M36.18,55.984H24.527V34.423h1.934h7.785h1.935V55.984z M28.822,29.7v-7.208h3.061V29.7H28.822z M34.705,16.98h-13.88
		c-1.305,0-2.362,1.058-2.362,2.362v1.277h-4.847V4.721h4.847v1.581c0,1.306,1.058,2.362,2.362,2.362h9.23
		c4.146,0,7.311,0.504,9.662,1.54c3.162,1.394,6.949,6.201,7.342,10.399C42.462,17.432,38.81,17.061,34.705,16.98z"/>
</g>
</svg>